<svg width="24" height="24" viewBox="0 0 24 24" xmlns="http://www.w3.org/2000/svg">
    <g id="resizing">
        <g clip-path="url(#clip0_306_6172)">
            <path d="M19.9999 5C19.9999 4.73478 19.8946 4.48043 19.707 4.29289C19.5195 4.10536 19.2652 4 18.9999 4H13.9999C13.7347 4 13.4804 4.10536 13.2928 4.29289C13.1053 4.48043 12.9999 4.73478 12.9999 5C12.9999 5.26522 13.1053 5.51957 13.2928 5.70711C13.4804 5.89464 13.7347 6 13.9999 6H16.5699L13.2899 9.29C13.1962 9.38296 13.1218 9.49356 13.071 9.61542C13.0203 9.73728 12.9941 9.86799 12.9941 10C12.9941 10.132 13.0203 10.2627 13.071 10.3846C13.1218 10.5064 13.1962 10.617 13.2899 10.71C13.3829 10.8037 13.4935 10.8781 13.6154 10.9289C13.7372 10.9797 13.8679 11.0058 13.9999 11.0058C14.132 11.0058 14.2627 10.9797 14.3845 10.9289C14.5064 10.8781 14.617 10.8037 14.7099 10.71L17.9999 7.42V10C17.9999 10.2652 18.1053 10.5196 18.2928 10.7071C18.4804 10.8946 18.7347 11 18.9999 11C19.2652 11 19.5195 10.8946 19.707 10.7071C19.8946 10.5196 19.9999 10.2652 19.9999 10V5Z" />
            <path d="M10.71 13.2899C10.617 13.1962 10.5064 13.1218 10.3846 13.071C10.2627 13.0203 10.132 12.9941 10 12.9941C9.86799 12.9941 9.73728 13.0203 9.61542 13.071C9.49356 13.1218 9.38296 13.1962 9.29 13.2899L6 16.5699V13.9999C6 13.7347 5.89464 13.4804 5.70711 13.2928C5.51957 13.1053 5.26522 12.9999 5 12.9999C4.73478 12.9999 4.48043 13.1053 4.29289 13.2928C4.10536 13.4804 4 13.7347 4 13.9999V18.9999C4 19.2652 4.10536 19.5195 4.29289 19.707C4.48043 19.8946 4.73478 19.9999 5 19.9999H10C10.2652 19.9999 10.5196 19.8946 10.7071 19.707C10.8946 19.5195 11 19.2652 11 18.9999C11 18.7347 10.8946 18.4804 10.7071 18.2928C10.5196 18.1053 10.2652 17.9999 10 17.9999H7.42L10.71 14.7099C10.8037 14.617 10.8781 14.5064 10.9289 14.3845C10.9797 14.2627 11.0058 14.132 11.0058 13.9999C11.0058 13.8679 10.9797 13.7372 10.9289 13.6154C10.8781 13.4935 10.8037 13.3829 10.71 13.2899Z" />
        </g>
        <defs>
            <clipPath id="clip0_306_6172">
                <rect width="24" height="24" />
            </clipPath>
        </defs>
    </g>
    <g id="scaling">
        <g clip-path="url(#clip0_306_6173)">
            <path d="M20.71 19.29L17.31 15.9C18.407 14.5025 19.0022 12.7767 19 11C19 9.41775 18.5308 7.87103 17.6518 6.55544C16.7727 5.23985 15.5233 4.21447 14.0615 3.60897C12.5997 3.00347 10.9911 2.84504 9.43928 3.15372C7.88743 3.4624 6.46197 4.22433 5.34315 5.34315C4.22433 6.46197 3.4624 7.88743 3.15372 9.43928C2.84504 10.9911 3.00347 12.5997 3.60897 14.0615C4.21447 15.5233 5.23985 16.7727 6.55544 17.6518C7.87103 18.5308 9.41775 19 11 19C12.7767 19.0022 14.5025 18.407 15.9 17.31L19.29 20.71C19.383 20.8037 19.4936 20.8781 19.6154 20.9289C19.7373 20.9797 19.868 21.0058 20 21.0058C20.132 21.0058 20.2627 20.9797 20.3846 20.9289C20.5064 20.8781 20.617 20.8037 20.71 20.71C20.8037 20.617 20.8781 20.5064 20.9289 20.3846C20.9797 20.2627 21.0058 20.132 21.0058 20C21.0058 19.868 20.9797 19.7373 20.9289 19.6154C20.8781 19.4936 20.8037 19.383 20.71 19.29ZM5 11C5 9.81332 5.3519 8.65328 6.01119 7.66658C6.67047 6.67989 7.60755 5.91085 8.7039 5.45673C9.80026 5.0026 11.0067 4.88378 12.1705 5.11529C13.3344 5.3468 14.4035 5.91825 15.2426 6.75736C16.0818 7.59648 16.6532 8.66558 16.8847 9.82946C17.1162 10.9933 16.9974 12.1997 16.5433 13.2961C16.0892 14.3925 15.3201 15.3295 14.3334 15.9888C13.3467 16.6481 12.1867 17 11 17C9.4087 17 7.88258 16.3679 6.75736 15.2426C5.63214 14.1174 5 12.5913 5 11Z" />
            <path d="M13 10H12V9C12 8.73478 11.8946 8.48043 11.7071 8.29289C11.5196 8.10536 11.2652 8 11 8C10.7348 8 10.4804 8.10536 10.2929 8.29289C10.1054 8.48043 10 8.73478 10 9V10H9C8.73478 10 8.48043 10.1054 8.29289 10.2929C8.10536 10.4804 8 10.7348 8 11C8 11.2652 8.10536 11.5196 8.29289 11.7071C8.48043 11.8946 8.73478 12 9 12H10V13C10 13.2652 10.1054 13.5196 10.2929 13.7071C10.4804 13.8946 10.7348 14 11 14C11.2652 14 11.5196 13.8946 11.7071 13.7071C11.8946 13.5196 12 13.2652 12 13V12H13C13.2652 12 13.5196 11.8946 13.7071 11.7071C13.8946 11.5196 14 11.2652 14 11C14 10.7348 13.8946 10.4804 13.7071 10.2929C13.5196 10.1054 13.2652 10 13 10Z" />
        </g>
        <defs>
            <clipPath id="clip0_306_6173">
                <rect width="24" height="24" />
            </clipPath>
        </defs>
    </g>
    <g id="selectingMoreImgs">
        <g clip-path="url(#clip0_306_6397)">
            <path d="M18 3H6C5.20435 3 4.44129 3.31607 3.87868 3.87868C3.31607 4.44129 3 5.20435 3 6V18C3 18.7956 3.31607 19.5587 3.87868 20.1213C4.44129 20.6839 5.20435 21 6 21H18C18.7956 21 19.5587 20.6839 20.1213 20.1213C20.6839 19.5587 21 18.7956 21 18V6C21 5.20435 20.6839 4.44129 20.1213 3.87868C19.5587 3.31607 18.7956 3 18 3ZM6 5H18C18.2652 5 18.5196 5.10536 18.7071 5.29289C18.8946 5.48043 19 5.73478 19 6V14.36L15.8 11.63C15.3042 11.222 14.6821 10.999 14.04 10.999C13.3979 10.999 12.7758 11.222 12.28 11.63L5 17.7V6C5 5.73478 5.10536 5.48043 5.29289 5.29289C5.48043 5.10536 5.73478 5 6 5ZM18 19H6.56L13.56 13.16C13.6945 13.0602 13.8575 13.0062 14.025 13.0062C14.1925 13.0062 14.3555 13.0602 14.49 13.16L19 17V18C19 18.2652 18.8946 18.5196 18.7071 18.7071C18.5196 18.8946 18.2652 19 18 19Z" />
            <path d="M8 10C8.82843 10 9.5 9.32843 9.5 8.5C9.5 7.67157 8.82843 7 8 7C7.17157 7 6.5 7.67157 6.5 8.5C6.5 9.32843 7.17157 10 8 10Z" />
        </g>
        <defs>
            <clipPath id="clip0_306_6397">
                <rect width="24" height="24" />
            </clipPath>
        </defs>
    </g>
    <g id="cropMenuOriginalSizeIcon">
        <g clip-path="url(#clip0_306_6397)">
            <path d="M18 3H6C5.20435 3 4.44129 3.31607 3.87868 3.87868C3.31607 4.44129 3 5.20435 3 6V18C3 18.7956 3.31607 19.5587 3.87868 20.1213C4.44129 20.6839 5.20435 21 6 21H18C18.7956 21 19.5587 20.6839 20.1213 20.1213C20.6839 19.5587 21 18.7956 21 18V6C21 5.20435 20.6839 4.44129 20.1213 3.87868C19.5587 3.31607 18.7956 3 18 3ZM6 5H18C18.2652 5 18.5196 5.10536 18.7071 5.29289C18.8946 5.48043 19 5.73478 19 6V14.36L15.8 11.63C15.3042 11.222 14.6821 10.999 14.04 10.999C13.3979 10.999 12.7758 11.222 12.28 11.63L5 17.7V6C5 5.73478 5.10536 5.48043 5.29289 5.29289C5.48043 5.10536 5.73478 5 6 5ZM18 19H6.56L13.56 13.16C13.6945 13.0602 13.8575 13.0062 14.025 13.0062C14.1925 13.0062 14.3555 13.0602 14.49 13.16L19 17V18C19 18.2652 18.8946 18.5196 18.7071 18.7071C18.5196 18.8946 18.2652 19 18 19Z" />
            <path d="M8 10C8.82843 10 9.5 9.32843 9.5 8.5C9.5 7.67157 8.82843 7 8 7C7.17157 7 6.5 7.67157 6.5 8.5C6.5 9.32843 7.17157 10 8 10Z" />
        </g>
        <defs>
            <clipPath id="clip0_306_6397">
            <rect width="24" height="24" />
            </clipPath>
        </defs>
    </g>
</svg>
